<svg xmlns="http://www.w3.org/2000/svg" width="263" height="52" fill="none" viewBox="0 0 263 52"><g stroke="#fff" stroke-linecap="round" stroke-linejoin="round" stroke-width="3.25" clip-path="url(#a)"><path d="M41.167 15.906v-6.5A2.167 2.167 0 0 0 39 7.239H10.833a4.333 4.333 0 0 0 0 8.667h32.5a2.167 2.167 0 0 1 2.167 2.166v8.667m0 0H39a4.333 4.333 0 0 0 0 8.667h6.5a2.167 2.167 0 0 0 2.167-2.167v-4.333a2.167 2.167 0 0 0-2.167-2.167"/><path d="M6.5 11.572v30.334a4.334 4.334 0 0 0 4.333 4.333h32.5a2.167 2.167 0 0 0 2.167-2.167v-8.666"/></g><path fill="#fff" d="M70.557 37.5V14.227h8.295q2.715 0 4.5.989 1.785.988 2.67 2.705.888 1.704.887 3.84 0 2.148-.898 3.864-.885 1.705-2.681 2.704-1.785.99-4.49.99h-5.704V26.34h5.387q1.716 0 2.784-.591 1.068-.602 1.568-1.636.5-1.035.5-2.353t-.5-2.34-1.58-1.603q-1.068-.58-2.818-.58h-4.409V37.5zm25.12.386q-1.66 0-3-.613a5.05 5.05 0 0 1-2.126-1.807q-.773-1.182-.773-2.898 0-1.477.569-2.432.567-.954 1.534-1.511a8 8 0 0 1 2.159-.84q1.193-.285 2.432-.433l2.545-.295q.978-.125 1.421-.398t.443-.886v-.08q0-1.488-.841-2.307-.83-.818-2.478-.818-1.715 0-2.704.761-.977.75-1.352 1.671l-3.193-.727q.567-1.59 1.659-2.568a6.7 6.7 0 0 1 2.534-1.432 9.9 9.9 0 0 1 3.011-.455q1.046 0 2.216.25a6.5 6.5 0 0 1 2.205.886q1.033.648 1.693 1.853.659 1.193.659 3.102V37.5h-3.318v-2.386h-.137q-.329.658-.988 1.295-.66.636-1.694 1.057t-2.477.42m.738-2.727q1.41 0 2.409-.557 1.01-.556 1.534-1.454a3.77 3.77 0 0 0 .534-1.944v-2.25q-.182.183-.704.341-.512.148-1.171.262-.66.102-1.284.193-.625.08-1.046.136a8.4 8.4 0 0 0-1.806.42q-.807.297-1.296.853-.477.546-.477 1.455 0 1.26.932 1.909.932.636 2.375.636m13.923 8.886q-.762 0-1.386-.125-.626-.113-.932-.25l.818-2.784q.931.25 1.659.216a2 2 0 0 0 1.284-.545q.568-.512 1-1.67l.421-1.16-6.387-17.681h3.637l4.42 13.545h.182l4.42-13.545h3.648l-7.193 19.784q-.5 1.364-1.273 2.306a4.94 4.94 0 0 1-1.841 1.432q-1.068.477-2.477.477m24.761-29.818V37.5h-3.522V17.75h-.137l-5.568 3.636v-3.363l5.807-3.796zm14.398 23.66q-2.692-.012-4.602-1.421-1.909-1.41-2.921-4.102-1.011-2.694-1.011-6.489 0-3.784 1.011-6.466 1.024-2.682 2.932-4.09 1.921-1.41 4.591-1.41t4.58 1.42q1.909 1.41 2.92 4.092 1.023 2.67 1.023 6.454 0 3.807-1.011 6.5-1.012 2.682-2.921 4.102-1.91 1.41-4.591 1.41m0-3.035q2.364 0 3.693-2.306 1.341-2.307 1.341-6.671 0-2.898-.613-4.898-.602-2.01-1.739-3.045-1.125-1.046-2.682-1.046-2.352 0-3.693 2.319t-1.352 6.67q0 2.91.602 4.92.614 2 1.739 3.035 1.125 1.022 2.704 1.022m25.898 2.648-6.455-23.273h3.694l4.534 18.023h.216l4.715-18.023h3.66l4.715 18.034h.216l4.523-18.034h3.705L192.452 37.5h-3.534l-4.898-17.432h-.182L178.94 37.5zm29.812.386q-1.659 0-3-.613a5.05 5.05 0 0 1-2.125-1.807q-.772-1.182-.772-2.898 0-1.477.568-2.432t1.534-1.511a8 8 0 0 1 2.159-.84q1.193-.285 2.432-.433l2.545-.295q.977-.125 1.421-.398.443-.273.443-.886v-.08q0-1.488-.841-2.307-.83-.818-2.477-.818-1.716 0-2.705.761-.977.75-1.352 1.671l-3.193-.727q.569-1.59 1.659-2.568a6.7 6.7 0 0 1 2.534-1.432 9.9 9.9 0 0 1 3.011-.455q1.046 0 2.216.25a6.5 6.5 0 0 1 2.205.886q1.034.648 1.693 1.853.659 1.193.659 3.102V37.5h-3.318v-2.386h-.137q-.329.658-.988 1.295-.66.636-1.693 1.057-1.034.42-2.478.42m.739-2.727q1.408 0 2.409-.557 1.012-.556 1.534-1.454a3.77 3.77 0 0 0 .534-1.944v-2.25q-.182.183-.704.341-.511.148-1.171.262-.659.102-1.284.193-.624.08-1.045.136a8.4 8.4 0 0 0-1.807.42q-.807.297-1.296.853-.477.546-.477 1.455 0 1.26.932 1.909.932.636 2.375.636m15.798-20.932V37.5h-3.397V14.227zm7.969 0V37.5h-3.398V14.227zm12.094 23.625q-2.58 0-4.443-1.102-1.853-1.113-2.864-3.125-1-2.023-1-4.739 0-2.68 1-4.727 1.012-2.045 2.818-3.193 1.818-1.148 4.25-1.148 1.478 0 2.864.489a6.9 6.9 0 0 1 2.488 1.534q1.103 1.045 1.739 2.716.636 1.659.636 4.034v1.204H235.42V27.25h10.546q0-1.341-.546-2.375a4.1 4.1 0 0 0-1.534-1.648q-.977-.602-2.295-.602-1.432 0-2.5.704a4.7 4.7 0 0 0-1.636 1.819 5.25 5.25 0 0 0-.569 2.42v1.989q0 1.75.614 2.977.625 1.227 1.739 1.875 1.113.636 2.602.636a5.4 5.4 0 0 0 1.761-.272q.796-.285 1.375-.841.58-.557.887-1.375l3.216.58a5.8 5.8 0 0 1-1.387 2.488q-.988 1.057-2.488 1.648-1.489.58-3.398.58m19.406-17.806v2.727h-9.534v-2.727zm-6.977-4.182h3.398v16.511q0 .989.295 1.489.296.488.761.67.478.17 1.034.17.41 0 .716-.056l.478-.091.613 2.807a6 6 0 0 1-.841.227q-.545.125-1.363.136a6 6 0 0 1-2.5-.477 4.3 4.3 0 0 1-1.875-1.545q-.716-1.045-.716-2.625z"/><defs><clipPath id="a"><path fill="#fff" d="M0 0h52v52H0z"/></clipPath></defs></svg>