<svg xmlns="http://www.w3.org/2000/svg" width="118" height="49" viewBox="0 0 118 49" fill="none"><path d="M21.9086 6.94938C20.5385 8.57069 18.3463 9.84947 16.1541 9.66679C15.8801 7.47459 16.9534 5.14538 18.2093 3.70675C19.5794 2.03977 21.9771 0.852328 23.9181 0.760986C24.1465 3.04453 23.2559 5.28239 21.9086 6.94938ZM23.8953 10.1007C20.7212 9.91798 18.0038 11.9047 16.4966 11.9047C14.9667 11.9047 12.6603 10.192 10.1484 10.2377C6.88294 10.2833 3.84583 12.133 2.17885 15.0788C-1.24646 20.9703 1.28827 29.6934 4.5994 34.4889C6.22072 36.8637 8.16172 39.467 10.7193 39.3756C13.1398 39.2843 14.0989 37.8 17.0219 37.8C19.9676 37.8 20.8125 39.3756 23.3701 39.33C26.019 39.2843 27.686 36.9551 29.3073 34.5802C31.157 31.8856 31.9105 29.2596 31.9562 29.1225C31.9105 29.0769 26.8411 27.1359 26.7954 21.29C26.7497 16.4032 30.7916 14.074 30.9743 13.937C28.6907 10.5574 25.1284 10.192 23.8953 10.1007ZM42.2321 3.4784V39.0788H47.7583V26.9075H55.4082C62.3958 26.9075 67.3054 22.1121 67.3054 15.1701C67.3054 8.22816 62.4871 3.4784 55.5908 3.4784H42.2321ZM47.7583 8.13682H54.1294C58.9248 8.13682 61.6651 10.6944 61.6651 15.193C61.6651 19.6915 58.9248 22.2719 54.1065 22.2719H47.7583V8.13682ZM77.3986 39.3528C80.8696 39.3528 84.0894 37.5945 85.5509 34.8086H85.6651V39.0788H90.7802V21.3585C90.7802 16.2205 86.6698 12.9094 80.3444 12.9094C74.4757 12.9094 70.137 16.2662 69.9771 20.879H74.9553C75.3663 18.6868 77.3986 17.2481 80.1846 17.2481C83.5642 17.2481 85.4595 18.8238 85.4595 21.7239V23.6877L78.5632 24.0988C72.1465 24.487 68.6755 27.113 68.6755 31.6801C68.6755 36.2929 72.2607 39.3528 77.3986 39.3528ZM78.8829 35.1283C75.9372 35.1283 74.0647 33.7125 74.0647 31.5431C74.0647 29.3052 75.8687 28.0036 79.3168 27.7981L85.4595 27.4099V29.4194C85.4595 32.7534 82.628 35.1283 78.8829 35.1283ZM97.608 48.761C102.997 48.761 105.532 46.7058 107.747 40.4717L117.452 13.2519H111.834L105.326 34.2833H105.212L98.7041 13.2519H92.9267L102.289 39.1701L101.787 40.7458C100.942 43.4175 99.5718 44.4451 97.1284 44.4451C96.6946 44.4451 95.8496 44.3994 95.5071 44.3538V48.624C95.8268 48.7153 97.1969 48.761 97.608 48.761Z" fill="black"></path></svg>